<mxfile host="app.diagrams.net" modified="2022-03-28T20:13:23.770Z" agent="5.0 (Macintosh; Intel Mac OS X 10_15_7) AppleWebKit/605.1.15 (KHTML, like Gecko) Version/15.4 Safari/605.1.15" etag="idv7pyMrnSUrUVWKVKVw" version="17.2.4" type="github">
  <diagram id="C6TcRVz480xGMmN0L9YG" name="Page-1">
    <mxGraphModel dx="946" dy="645" grid="1" gridSize="10" guides="1" tooltips="1" connect="1" arrows="1" fold="1" page="1" pageScale="1" pageWidth="1169" pageHeight="1654" math="0" shadow="0">
      <root>
        <mxCell id="0" />
        <mxCell id="1" parent="0" />
        <mxCell id="i6EDNVZMxVn3YZgOFnfN-41" value="" style="rounded=0;whiteSpace=wrap;html=1;" parent="1" vertex="1">
          <mxGeometry x="40" y="120" width="1040" height="880" as="geometry" />
        </mxCell>
        <mxCell id="i6EDNVZMxVn3YZgOFnfN-2" value="" style="rounded=0;whiteSpace=wrap;html=1;" parent="1" vertex="1">
          <mxGeometry x="200" y="200" width="800" height="720" as="geometry" />
        </mxCell>
        <mxCell id="i6EDNVZMxVn3YZgOFnfN-11" style="edgeStyle=orthogonalEdgeStyle;rounded=0;orthogonalLoop=1;jettySize=auto;html=1;entryX=0.5;entryY=0.5;entryDx=0;entryDy=0;entryPerimeter=0;exitX=0.5;exitY=0.5;exitDx=0;exitDy=0;exitPerimeter=0;spacing=2;labelBorderColor=none;fontStyle=1;strokeWidth=2;" parent="1" source="i6EDNVZMxVn3YZgOFnfN-3" target="i6EDNVZMxVn3YZgOFnfN-7" edge="1">
          <mxGeometry relative="1" as="geometry">
            <Array as="points">
              <mxPoint x="80" y="660" />
              <mxPoint x="80" y="420" />
            </Array>
          </mxGeometry>
        </mxCell>
        <mxCell id="i6EDNVZMxVn3YZgOFnfN-45" style="rounded=0;orthogonalLoop=1;jettySize=auto;html=1;exitX=0.5;exitY=0.5;exitDx=0;exitDy=0;exitPerimeter=0;entryX=0;entryY=0.5;entryDx=0;entryDy=0;labelBorderColor=none;endArrow=none;endFill=0;strokeWidth=2;" parent="1" source="i6EDNVZMxVn3YZgOFnfN-3" target="i6EDNVZMxVn3YZgOFnfN-49" edge="1">
          <mxGeometry relative="1" as="geometry" />
        </mxCell>
        <mxCell id="i6EDNVZMxVn3YZgOFnfN-47" style="edgeStyle=none;rounded=0;orthogonalLoop=1;jettySize=auto;html=1;exitX=0.5;exitY=0.5;exitDx=0;exitDy=0;exitPerimeter=0;entryX=0;entryY=0.5;entryDx=0;entryDy=0;labelBorderColor=none;endArrow=none;endFill=0;strokeWidth=2;" parent="1" source="i6EDNVZMxVn3YZgOFnfN-3" target="i6EDNVZMxVn3YZgOFnfN-50" edge="1">
          <mxGeometry relative="1" as="geometry" />
        </mxCell>
        <mxCell id="i6EDNVZMxVn3YZgOFnfN-48" style="edgeStyle=orthogonalEdgeStyle;rounded=0;orthogonalLoop=1;jettySize=auto;html=1;exitX=0.5;exitY=0.5;exitDx=0;exitDy=0;exitPerimeter=0;entryX=0.5;entryY=1;entryDx=0;entryDy=0;labelBorderColor=none;endArrow=none;endFill=0;strokeWidth=2;" parent="1" source="i6EDNVZMxVn3YZgOFnfN-3" target="i6EDNVZMxVn3YZgOFnfN-54" edge="1">
          <mxGeometry relative="1" as="geometry">
            <mxPoint x="770" y="880" as="targetPoint" />
            <Array as="points">
              <mxPoint x="130" y="900" />
              <mxPoint x="770" y="900" />
            </Array>
          </mxGeometry>
        </mxCell>
        <mxCell id="i6EDNVZMxVn3YZgOFnfN-3" value="Авторизованный&lt;br&gt;пользователь" style="shape=umlActor;verticalLabelPosition=bottom;verticalAlign=top;html=1;outlineConnect=0;" parent="1" vertex="1">
          <mxGeometry x="100" y="600" width="60" height="120" as="geometry" />
        </mxCell>
        <mxCell id="i6EDNVZMxVn3YZgOFnfN-24" style="rounded=0;orthogonalLoop=1;jettySize=auto;html=1;exitX=0.5;exitY=0.5;exitDx=0;exitDy=0;exitPerimeter=0;entryX=0;entryY=0.5;entryDx=0;entryDy=0;labelBorderColor=none;strokeWidth=2;endArrow=none;endFill=0;" parent="1" source="i6EDNVZMxVn3YZgOFnfN-7" target="i6EDNVZMxVn3YZgOFnfN-23" edge="1">
          <mxGeometry relative="1" as="geometry" />
        </mxCell>
        <mxCell id="i6EDNVZMxVn3YZgOFnfN-32" style="rounded=0;orthogonalLoop=1;jettySize=auto;html=1;exitX=0.5;exitY=0.5;exitDx=0;exitDy=0;exitPerimeter=0;entryX=0;entryY=0.5;entryDx=0;entryDy=0;labelBorderColor=none;endArrow=none;endFill=0;strokeWidth=2;" parent="1" source="i6EDNVZMxVn3YZgOFnfN-7" target="i6EDNVZMxVn3YZgOFnfN-30" edge="1">
          <mxGeometry relative="1" as="geometry" />
        </mxCell>
        <mxCell id="i6EDNVZMxVn3YZgOFnfN-33" style="edgeStyle=none;rounded=0;orthogonalLoop=1;jettySize=auto;html=1;exitX=0.5;exitY=0.5;exitDx=0;exitDy=0;exitPerimeter=0;entryX=0;entryY=0.5;entryDx=0;entryDy=0;labelBorderColor=none;endArrow=none;endFill=0;strokeWidth=2;" parent="1" source="i6EDNVZMxVn3YZgOFnfN-7" target="i6EDNVZMxVn3YZgOFnfN-31" edge="1">
          <mxGeometry relative="1" as="geometry" />
        </mxCell>
        <mxCell id="i6EDNVZMxVn3YZgOFnfN-7" value="Пользователь" style="shape=umlActor;verticalLabelPosition=bottom;verticalAlign=top;html=1;outlineConnect=0;" parent="1" vertex="1">
          <mxGeometry x="100" y="360" width="60" height="120" as="geometry" />
        </mxCell>
        <mxCell id="i6EDNVZMxVn3YZgOFnfN-15" value="Модуль авторизации" style="swimlane;" parent="1" vertex="1">
          <mxGeometry x="240" y="240" width="380" height="200" as="geometry" />
        </mxCell>
        <mxCell id="i6EDNVZMxVn3YZgOFnfN-31" value="Восстановить пароль" style="rounded=1;whiteSpace=wrap;html=1;" parent="i6EDNVZMxVn3YZgOFnfN-15" vertex="1">
          <mxGeometry x="10" y="140" width="100" height="40" as="geometry" />
        </mxCell>
        <mxCell id="i6EDNVZMxVn3YZgOFnfN-30" value="Зарегистрироваться" style="rounded=1;whiteSpace=wrap;html=1;" parent="i6EDNVZMxVn3YZgOFnfN-15" vertex="1">
          <mxGeometry x="10" y="90" width="140" height="40" as="geometry" />
        </mxCell>
        <mxCell id="i6EDNVZMxVn3YZgOFnfN-23" value="Авторизоваться" style="rounded=1;whiteSpace=wrap;html=1;" parent="i6EDNVZMxVn3YZgOFnfN-15" vertex="1">
          <mxGeometry x="10" y="40" width="100" height="40" as="geometry" />
        </mxCell>
        <mxCell id="i6EDNVZMxVn3YZgOFnfN-17" value="Модуль приложения" style="swimlane;" parent="1" vertex="1">
          <mxGeometry x="240" y="480" width="720" height="400" as="geometry" />
        </mxCell>
        <mxCell id="i6EDNVZMxVn3YZgOFnfN-42" value="Мой профиль" style="swimlane;" parent="i6EDNVZMxVn3YZgOFnfN-17" vertex="1">
          <mxGeometry x="20" y="40" width="320" height="160" as="geometry" />
        </mxCell>
        <mxCell id="i6EDNVZMxVn3YZgOFnfN-49" value="user" style="rhombus;whiteSpace=wrap;html=1;" parent="i6EDNVZMxVn3YZgOFnfN-42" vertex="1">
          <mxGeometry x="-20" y="60" width="40" height="40" as="geometry" />
        </mxCell>
        <mxCell id="i6EDNVZMxVn3YZgOFnfN-52" value="Изменить данные" style="rounded=1;whiteSpace=wrap;html=1;" parent="i6EDNVZMxVn3YZgOFnfN-42" vertex="1">
          <mxGeometry x="110" y="60" width="100" height="40" as="geometry" />
        </mxCell>
        <mxCell id="i6EDNVZMxVn3YZgOFnfN-53" style="rounded=0;orthogonalLoop=1;jettySize=auto;html=1;exitX=1;exitY=0.5;exitDx=0;exitDy=0;entryX=0;entryY=0.5;entryDx=0;entryDy=0;labelBorderColor=none;endArrow=none;endFill=0;strokeWidth=2;" parent="i6EDNVZMxVn3YZgOFnfN-42" source="i6EDNVZMxVn3YZgOFnfN-49" target="i6EDNVZMxVn3YZgOFnfN-52" edge="1">
          <mxGeometry relative="1" as="geometry" />
        </mxCell>
        <mxCell id="i6EDNVZMxVn3YZgOFnfN-43" value="Мессенджер" style="swimlane;" parent="i6EDNVZMxVn3YZgOFnfN-17" vertex="1">
          <mxGeometry x="20" y="220" width="320" height="160" as="geometry" />
        </mxCell>
        <mxCell id="i6EDNVZMxVn3YZgOFnfN-50" value="user" style="rhombus;whiteSpace=wrap;html=1;" parent="i6EDNVZMxVn3YZgOFnfN-43" vertex="1">
          <mxGeometry x="-20" y="60" width="40" height="40" as="geometry" />
        </mxCell>
        <mxCell id="i6EDNVZMxVn3YZgOFnfN-85" value="Написать сообщение" style="rounded=1;whiteSpace=wrap;html=1;" parent="i6EDNVZMxVn3YZgOFnfN-43" vertex="1">
          <mxGeometry x="140" y="107" width="140" height="40" as="geometry" />
        </mxCell>
        <mxCell id="i6EDNVZMxVn3YZgOFnfN-86" style="rounded=0;orthogonalLoop=1;jettySize=auto;html=1;exitX=1;exitY=0.5;exitDx=0;exitDy=0;entryX=0;entryY=0.5;entryDx=0;entryDy=0;labelBorderColor=none;endArrow=none;endFill=0;strokeWidth=2;" parent="i6EDNVZMxVn3YZgOFnfN-43" source="i6EDNVZMxVn3YZgOFnfN-50" target="i6EDNVZMxVn3YZgOFnfN-85" edge="1">
          <mxGeometry relative="1" as="geometry" />
        </mxCell>
        <mxCell id="i6EDNVZMxVn3YZgOFnfN-18" value="" style="shape=datastore;whiteSpace=wrap;html=1;" parent="1" vertex="1">
          <mxGeometry x="740" y="240" width="220" height="200" as="geometry" />
        </mxCell>
        <mxCell id="i6EDNVZMxVn3YZgOFnfN-19" value="PostgreSQL" style="text;html=1;strokeColor=none;fillColor=none;align=center;verticalAlign=middle;whiteSpace=wrap;rounded=0;" parent="1" vertex="1">
          <mxGeometry x="820" y="250" width="60" height="30" as="geometry" />
        </mxCell>
        <mxCell id="i6EDNVZMxVn3YZgOFnfN-20" value="Users" style="rounded=0;whiteSpace=wrap;html=1;" parent="1" vertex="1">
          <mxGeometry x="780" y="320" width="60" height="20" as="geometry" />
        </mxCell>
        <mxCell id="i6EDNVZMxVn3YZgOFnfN-21" value="Friends" style="rounded=0;whiteSpace=wrap;html=1;" parent="1" vertex="1">
          <mxGeometry x="880" y="350" width="60" height="20" as="geometry" />
        </mxCell>
        <mxCell id="i6EDNVZMxVn3YZgOFnfN-22" value="Messages" style="rounded=0;whiteSpace=wrap;html=1;" parent="1" vertex="1">
          <mxGeometry x="780" y="390" width="60" height="20" as="geometry" />
        </mxCell>
        <mxCell id="i6EDNVZMxVn3YZgOFnfN-25" value="auth" style="endArrow=open;dashed=1;html=1;rounded=0;labelBorderColor=none;strokeWidth=2;exitX=1;exitY=0.5;exitDx=0;exitDy=0;entryX=0;entryY=0;entryDx=0;entryDy=0;endFill=0;edgeStyle=orthogonalEdgeStyle;" parent="1" source="i6EDNVZMxVn3YZgOFnfN-23" target="i6EDNVZMxVn3YZgOFnfN-34" edge="1">
          <mxGeometry width="50" height="50" relative="1" as="geometry">
            <mxPoint x="400" y="440" as="sourcePoint" />
            <mxPoint x="450" y="390" as="targetPoint" />
            <Array as="points">
              <mxPoint x="610" y="300" />
            </Array>
          </mxGeometry>
        </mxCell>
        <mxCell id="i6EDNVZMxVn3YZgOFnfN-36" value="auth" style="rounded=0;orthogonalLoop=1;jettySize=auto;html=1;exitX=1;exitY=0.5;exitDx=0;exitDy=0;entryX=0;entryY=0.5;entryDx=0;entryDy=0;labelBorderColor=none;endArrow=open;endFill=0;strokeWidth=2;dashed=1;" parent="1" source="i6EDNVZMxVn3YZgOFnfN-34" target="i6EDNVZMxVn3YZgOFnfN-20" edge="1">
          <mxGeometry relative="1" as="geometry" />
        </mxCell>
        <mxCell id="i6EDNVZMxVn3YZgOFnfN-34" value="db" style="rhombus;whiteSpace=wrap;html=1;" parent="1" vertex="1">
          <mxGeometry x="600" y="330" width="40" height="40" as="geometry" />
        </mxCell>
        <mxCell id="i6EDNVZMxVn3YZgOFnfN-37" style="edgeStyle=none;rounded=0;orthogonalLoop=1;jettySize=auto;html=1;entryX=0;entryY=0.5;entryDx=0;entryDy=0;labelBorderColor=none;endArrow=open;endFill=0;strokeWidth=2;dashed=1;" parent="1" source="i6EDNVZMxVn3YZgOFnfN-30" target="i6EDNVZMxVn3YZgOFnfN-34" edge="1">
          <mxGeometry relative="1" as="geometry" />
        </mxCell>
        <mxCell id="i6EDNVZMxVn3YZgOFnfN-38" value="auth" style="edgeLabel;html=1;align=center;verticalAlign=middle;resizable=0;points=[];" parent="i6EDNVZMxVn3YZgOFnfN-37" vertex="1" connectable="0">
          <mxGeometry x="0.2991" y="-1" relative="1" as="geometry">
            <mxPoint as="offset" />
          </mxGeometry>
        </mxCell>
        <mxCell id="i6EDNVZMxVn3YZgOFnfN-39" style="edgeStyle=orthogonalEdgeStyle;rounded=0;orthogonalLoop=1;jettySize=auto;html=1;exitX=1;exitY=0.5;exitDx=0;exitDy=0;entryX=0;entryY=1;entryDx=0;entryDy=0;dashed=1;labelBorderColor=none;endArrow=open;endFill=0;strokeWidth=2;" parent="1" source="i6EDNVZMxVn3YZgOFnfN-31" target="i6EDNVZMxVn3YZgOFnfN-34" edge="1">
          <mxGeometry relative="1" as="geometry" />
        </mxCell>
        <mxCell id="i6EDNVZMxVn3YZgOFnfN-40" value="auth" style="edgeLabel;html=1;align=center;verticalAlign=middle;resizable=0;points=[];" parent="i6EDNVZMxVn3YZgOFnfN-39" vertex="1" connectable="0">
          <mxGeometry x="0.0426" y="1" relative="1" as="geometry">
            <mxPoint as="offset" />
          </mxGeometry>
        </mxCell>
        <mxCell id="i6EDNVZMxVn3YZgOFnfN-44" value="Друзья" style="swimlane;" parent="1" vertex="1">
          <mxGeometry x="610" y="520" width="320" height="340" as="geometry" />
        </mxCell>
        <mxCell id="i6EDNVZMxVn3YZgOFnfN-67" style="edgeStyle=none;rounded=0;orthogonalLoop=1;jettySize=auto;html=1;exitX=0.5;exitY=0;exitDx=0;exitDy=0;entryX=1;entryY=0.5;entryDx=0;entryDy=0;labelBorderColor=none;endArrow=none;endFill=0;strokeWidth=2;" parent="i6EDNVZMxVn3YZgOFnfN-44" source="i6EDNVZMxVn3YZgOFnfN-54" target="i6EDNVZMxVn3YZgOFnfN-60" edge="1">
          <mxGeometry relative="1" as="geometry" />
        </mxCell>
        <mxCell id="i6EDNVZMxVn3YZgOFnfN-54" value="user" style="rhombus;whiteSpace=wrap;html=1;" parent="i6EDNVZMxVn3YZgOFnfN-44" vertex="1">
          <mxGeometry x="140" y="320" width="40" height="40" as="geometry" />
        </mxCell>
        <mxCell id="i6EDNVZMxVn3YZgOFnfN-60" value="Найти друга" style="rounded=1;whiteSpace=wrap;html=1;" parent="i6EDNVZMxVn3YZgOFnfN-44" vertex="1">
          <mxGeometry x="10" y="40" width="80" height="40" as="geometry" />
        </mxCell>
        <mxCell id="i6EDNVZMxVn3YZgOFnfN-58" value="" style="edgeStyle=orthogonalEdgeStyle;rounded=0;orthogonalLoop=1;jettySize=auto;html=1;exitX=1;exitY=0.5;exitDx=0;exitDy=0;entryX=0.25;entryY=1;entryDx=0;entryDy=0;labelBorderColor=none;endArrow=none;endFill=0;strokeWidth=2;dashed=1;" parent="1" source="i6EDNVZMxVn3YZgOFnfN-52" target="i6EDNVZMxVn3YZgOFnfN-20" edge="1">
          <mxGeometry relative="1" as="geometry">
            <mxPoint x="590" y="570" as="sourcePoint" />
            <Array as="points">
              <mxPoint x="600" y="600" />
              <mxPoint x="600" y="510" />
              <mxPoint x="680" y="510" />
              <mxPoint x="680" y="370" />
              <mxPoint x="795" y="370" />
            </Array>
          </mxGeometry>
        </mxCell>
        <mxCell id="i6EDNVZMxVn3YZgOFnfN-69" value="change user&#39;s data" style="edgeLabel;html=1;align=center;verticalAlign=middle;resizable=0;points=[];" parent="i6EDNVZMxVn3YZgOFnfN-58" vertex="1" connectable="0">
          <mxGeometry x="-0.8564" y="-1" relative="1" as="geometry">
            <mxPoint x="18" y="-1" as="offset" />
          </mxGeometry>
        </mxCell>
        <mxCell id="i6EDNVZMxVn3YZgOFnfN-73" style="edgeStyle=orthogonalEdgeStyle;rounded=0;orthogonalLoop=1;jettySize=auto;html=1;exitX=1;exitY=0.5;exitDx=0;exitDy=0;entryX=0.25;entryY=1;entryDx=0;entryDy=0;dashed=1;labelBorderColor=none;endArrow=none;endFill=0;strokeWidth=2;" parent="1" source="i6EDNVZMxVn3YZgOFnfN-61" target="i6EDNVZMxVn3YZgOFnfN-21" edge="1">
          <mxGeometry relative="1" as="geometry" />
        </mxCell>
        <mxCell id="i6EDNVZMxVn3YZgOFnfN-75" value="добавить &lt;br&gt;в друзья" style="edgeLabel;html=1;align=center;verticalAlign=middle;resizable=0;points=[];" parent="i6EDNVZMxVn3YZgOFnfN-73" vertex="1" connectable="0">
          <mxGeometry x="0.6473" y="1" relative="1" as="geometry">
            <mxPoint y="-47" as="offset" />
          </mxGeometry>
        </mxCell>
        <mxCell id="i6EDNVZMxVn3YZgOFnfN-61" value="Добавить в друзья" style="rounded=1;whiteSpace=wrap;html=1;" parent="1" vertex="1">
          <mxGeometry x="620" y="630" width="60" height="40" as="geometry" />
        </mxCell>
        <mxCell id="i6EDNVZMxVn3YZgOFnfN-77" style="edgeStyle=orthogonalEdgeStyle;rounded=0;orthogonalLoop=1;jettySize=auto;html=1;exitX=1;exitY=0.5;exitDx=0;exitDy=0;entryX=0.75;entryY=1;entryDx=0;entryDy=0;dashed=1;labelBorderColor=none;endArrow=none;endFill=0;strokeWidth=2;" parent="1" source="i6EDNVZMxVn3YZgOFnfN-62" target="i6EDNVZMxVn3YZgOFnfN-21" edge="1">
          <mxGeometry relative="1" as="geometry" />
        </mxCell>
        <mxCell id="i6EDNVZMxVn3YZgOFnfN-78" value="Удалить&lt;br&gt;из друзей" style="edgeLabel;html=1;align=center;verticalAlign=middle;resizable=0;points=[];" parent="i6EDNVZMxVn3YZgOFnfN-77" vertex="1" connectable="0">
          <mxGeometry x="0.6879" relative="1" as="geometry">
            <mxPoint x="5" y="-1" as="offset" />
          </mxGeometry>
        </mxCell>
        <mxCell id="i6EDNVZMxVn3YZgOFnfN-62" value="Удалить из друзей" style="rounded=1;whiteSpace=wrap;html=1;" parent="1" vertex="1">
          <mxGeometry x="620" y="700" width="70" height="40" as="geometry" />
        </mxCell>
        <mxCell id="i6EDNVZMxVn3YZgOFnfN-79" style="edgeStyle=orthogonalEdgeStyle;rounded=0;orthogonalLoop=1;jettySize=auto;html=1;exitX=0.5;exitY=1;exitDx=0;exitDy=0;entryX=1;entryY=0.5;entryDx=0;entryDy=0;dashed=1;labelBorderColor=none;endArrow=none;endFill=0;strokeWidth=2;" parent="1" source="i6EDNVZMxVn3YZgOFnfN-63" target="i6EDNVZMxVn3YZgOFnfN-22" edge="1">
          <mxGeometry relative="1" as="geometry">
            <Array as="points">
              <mxPoint x="655" y="830" />
              <mxPoint x="980" y="830" />
              <mxPoint x="980" y="330" />
              <mxPoint x="860" y="330" />
              <mxPoint x="860" y="400" />
            </Array>
          </mxGeometry>
        </mxCell>
        <mxCell id="i6EDNVZMxVn3YZgOFnfN-80" value="Написать сообщение" style="edgeLabel;html=1;align=center;verticalAlign=middle;resizable=0;points=[];" parent="i6EDNVZMxVn3YZgOFnfN-79" vertex="1" connectable="0">
          <mxGeometry x="-0.6092" y="-1" relative="1" as="geometry">
            <mxPoint x="19" y="-4" as="offset" />
          </mxGeometry>
        </mxCell>
        <mxCell id="i6EDNVZMxVn3YZgOFnfN-63" value="Написать сообщение" style="rounded=1;whiteSpace=wrap;html=1;" parent="1" vertex="1">
          <mxGeometry x="620" y="770" width="70" height="40" as="geometry" />
        </mxCell>
        <mxCell id="i6EDNVZMxVn3YZgOFnfN-64" style="rounded=0;orthogonalLoop=1;jettySize=auto;html=1;exitX=0.5;exitY=0;exitDx=0;exitDy=0;entryX=1;entryY=0.5;entryDx=0;entryDy=0;labelBorderColor=none;endArrow=none;endFill=0;strokeWidth=2;" parent="1" source="i6EDNVZMxVn3YZgOFnfN-54" target="i6EDNVZMxVn3YZgOFnfN-63" edge="1">
          <mxGeometry relative="1" as="geometry" />
        </mxCell>
        <mxCell id="i6EDNVZMxVn3YZgOFnfN-65" style="edgeStyle=none;rounded=0;orthogonalLoop=1;jettySize=auto;html=1;exitX=0.5;exitY=0;exitDx=0;exitDy=0;entryX=1;entryY=0.5;entryDx=0;entryDy=0;labelBorderColor=none;endArrow=none;endFill=0;strokeWidth=2;" parent="1" source="i6EDNVZMxVn3YZgOFnfN-54" target="i6EDNVZMxVn3YZgOFnfN-62" edge="1">
          <mxGeometry relative="1" as="geometry" />
        </mxCell>
        <mxCell id="i6EDNVZMxVn3YZgOFnfN-66" style="edgeStyle=none;rounded=0;orthogonalLoop=1;jettySize=auto;html=1;exitX=0.5;exitY=0;exitDx=0;exitDy=0;entryX=1;entryY=0.5;entryDx=0;entryDy=0;labelBorderColor=none;endArrow=none;endFill=0;strokeWidth=2;" parent="1" source="i6EDNVZMxVn3YZgOFnfN-54" target="i6EDNVZMxVn3YZgOFnfN-61" edge="1">
          <mxGeometry relative="1" as="geometry" />
        </mxCell>
        <mxCell id="i6EDNVZMxVn3YZgOFnfN-71" style="edgeStyle=orthogonalEdgeStyle;rounded=0;orthogonalLoop=1;jettySize=auto;html=1;exitX=1;exitY=0.5;exitDx=0;exitDy=0;entryX=0.5;entryY=1;entryDx=0;entryDy=0;labelBorderColor=none;endArrow=none;endFill=0;strokeWidth=2;dashed=1;" parent="1" source="i6EDNVZMxVn3YZgOFnfN-60" target="i6EDNVZMxVn3YZgOFnfN-20" edge="1">
          <mxGeometry relative="1" as="geometry">
            <Array as="points">
              <mxPoint x="720" y="580" />
              <mxPoint x="720" y="380" />
              <mxPoint x="810" y="380" />
            </Array>
          </mxGeometry>
        </mxCell>
        <mxCell id="i6EDNVZMxVn3YZgOFnfN-72" value="find user by" style="edgeLabel;html=1;align=center;verticalAlign=middle;resizable=0;points=[];" parent="i6EDNVZMxVn3YZgOFnfN-71" vertex="1" connectable="0">
          <mxGeometry x="-0.1792" relative="1" as="geometry">
            <mxPoint y="13" as="offset" />
          </mxGeometry>
        </mxCell>
        <mxCell id="i6EDNVZMxVn3YZgOFnfN-74" value="Важно нужно добавить 2 отношения: &lt;br&gt;user1 -&amp;gt; user2, user2 -&amp;gt; user1&amp;nbsp;" style="shape=callout;whiteSpace=wrap;html=1;perimeter=calloutPerimeter;position2=0;" parent="1" vertex="1">
          <mxGeometry x="750" y="570" width="170" height="80" as="geometry" />
        </mxCell>
        <mxCell id="i6EDNVZMxVn3YZgOFnfN-83" style="edgeStyle=orthogonalEdgeStyle;rounded=0;orthogonalLoop=1;jettySize=auto;html=1;exitX=0.25;exitY=0;exitDx=0;exitDy=0;entryX=0.25;entryY=1;entryDx=0;entryDy=0;labelBorderColor=none;endArrow=none;endFill=0;strokeWidth=2;dashed=1;" parent="1" source="i6EDNVZMxVn3YZgOFnfN-81" target="i6EDNVZMxVn3YZgOFnfN-22" edge="1">
          <mxGeometry relative="1" as="geometry">
            <Array as="points">
              <mxPoint x="345" y="460" />
              <mxPoint x="795" y="460" />
            </Array>
          </mxGeometry>
        </mxCell>
        <mxCell id="i6EDNVZMxVn3YZgOFnfN-84" value="список сообщений" style="edgeLabel;html=1;align=center;verticalAlign=middle;resizable=0;points=[];" parent="i6EDNVZMxVn3YZgOFnfN-83" vertex="1" connectable="0">
          <mxGeometry x="0.1547" y="1" relative="1" as="geometry">
            <mxPoint y="1" as="offset" />
          </mxGeometry>
        </mxCell>
        <mxCell id="i6EDNVZMxVn3YZgOFnfN-81" value="Увидеть список недавних сообщений" style="rounded=1;whiteSpace=wrap;html=1;" parent="1" vertex="1">
          <mxGeometry x="310" y="740" width="140" height="40" as="geometry" />
        </mxCell>
        <mxCell id="i6EDNVZMxVn3YZgOFnfN-82" style="rounded=0;orthogonalLoop=1;jettySize=auto;html=1;exitX=1;exitY=0.5;exitDx=0;exitDy=0;entryX=0;entryY=0.5;entryDx=0;entryDy=0;labelBorderColor=none;endArrow=none;endFill=0;strokeWidth=2;" parent="1" source="i6EDNVZMxVn3YZgOFnfN-50" target="i6EDNVZMxVn3YZgOFnfN-81" edge="1">
          <mxGeometry relative="1" as="geometry" />
        </mxCell>
        <mxCell id="i6EDNVZMxVn3YZgOFnfN-89" style="edgeStyle=orthogonalEdgeStyle;rounded=0;orthogonalLoop=1;jettySize=auto;html=1;exitX=0.5;exitY=1;exitDx=0;exitDy=0;entryX=0.75;entryY=1;entryDx=0;entryDy=0;dashed=1;labelBorderColor=none;endArrow=none;endFill=0;strokeWidth=2;" parent="1" source="i6EDNVZMxVn3YZgOFnfN-85" target="i6EDNVZMxVn3YZgOFnfN-22" edge="1">
          <mxGeometry relative="1" as="geometry">
            <Array as="points">
              <mxPoint x="470" y="950" />
              <mxPoint x="1030" y="950" />
              <mxPoint x="1030" y="430" />
              <mxPoint x="825" y="430" />
            </Array>
          </mxGeometry>
        </mxCell>
        <mxCell id="i6EDNVZMxVn3YZgOFnfN-90" value="написать сообщение" style="edgeLabel;html=1;align=center;verticalAlign=middle;resizable=0;points=[];" parent="i6EDNVZMxVn3YZgOFnfN-89" vertex="1" connectable="0">
          <mxGeometry x="-0.6518" y="-1" relative="1" as="geometry">
            <mxPoint as="offset" />
          </mxGeometry>
        </mxCell>
      </root>
    </mxGraphModel>
  </diagram>
</mxfile>
